<?xml version="1.0" encoding="UTF-8"?>
<svg xmlns="http://www.w3.org/2000/svg" viewBox="0 0 573.37 670.75" role="img" aria-hidden="true">
  <defs>
    <style>
      .st0 { fill: #b559e0; }
      .st1 { fill: #be6bcd; }
      .st2 { fill: #6b29bd; }
      .st3 { fill: #2c7bf5; }
      .st4 { fill: #4042e1; }
      .st5 { fill: #34e6fc; }
    </style>
  </defs>
  <path class="st4" d="M0,505.93l280.01,164.82v-331.76L0,505.93ZM238.78,592.52l-168.61-98.31,168.61-98.84v197.16Z"/>
  <polygon class="st3" points="148.88 252.96 43.37 435.65 43.37 244.7 112.89 286.62 134.63 249.61 0 171.36 0 505.93 285.46 342.31 195.63 287.5 174.37 323.24 219.35 349.73 107.83 416.59 186.82 276.68 148.88 252.96"/>
  <polygon class="st5" points="186.82 276.68 222.85 212.87 285.46 212.87 285.46 168.52 249.46 168.52 285.46 105.39 285.46 0 9.46 161.22 139.37 241.57 162.33 202.96 94.5 161.74 255.2 68.87 148.88 252.96 186.82 276.68"/>
  <polygon class="st5" points="201.78 277.49 223.46 239.99 285.46 275.38 285.46 329.29 201.78 277.49"/>
  <polygon class="st0" points="369.14 277.49 347.47 239.99 285.46 275.38 285.46 329.29 369.14 277.49"/>
  <path class="st0" d="M420.08,330.35s15.86,33.83,14.8,60.26c-.48,12-5.76,22.39-11.38,30.16l46.69,26.53c6.82-6.82,14.18-15.77,18.08-25.5,8.46-21.14,8.46-46.51.53-62.9S317.01,67.65,317.01,67.65l161.21,93.56-65.01,41.74,22.2,37.04,128.97-78.77L285.46,0v105.39l38.95,63.13h-38.95v44.35h64.85l69.77,117.48Z"/>
  <path class="st1" d="M463.42,286.62l65.54-37.01v186.04l-28.54-13.86s-1.59,12.16-12.69,26.43c-1.71,2.19-3.44,4.24-5.14,6.12l90.77,51.59V168.52l-132.14,81.09,22.2,37.01Z"/>
  <polygon class="st1" points="336.57 361.01 399.47 322.95 378.85 286.62 285.46 342.31 336.57 371.36 336.57 361.01"/>
  <path class="st2" d="M464.48,470.42l39.64,23.79-168.08,98.31v-63.43l118.93-68.71s7.23-5.08,15.22-13.08l-46.69-26.53c-6.75,9.33-13.99,14.89-13.99,14.89l-72.94,43.75v-108.05l-51.11-29.04,6.71,4.95v323.48l281.2-164.82-90.77-51.59c-9.4,10.4-18.11,16.08-18.11,16.08Z"/>
</svg>
