<?xml version="1.0" encoding="UTF-8"?>
<svg id="Ebene_1" xmlns="http://www.w3.org/2000/svg" version="1.1" viewBox="0 0 78.897 71.131">
  <!-- Generator: Adobe Illustrator 29.8.6, SVG Export Plug-In . SVG Version: 2.1.1 Build 1)  -->
  <g>
    <polygon points=".749 52.8 17.549 52.8 18.749 38.399 3.148 34.8 .749 52.8" fill="#4d4d4d" fill-rule="evenodd"/>
    <polygon points="3.749 32.399 18.749 36 22.349 23.399 9.749 16.8 3.749 32.399" fill="#4d4d4d" fill-rule="evenodd"/>
    <polygon points="10.948 14.399 22.948 21 32.549 14.399 23.549 4.2 10.948 14.399" fill="#4d4d4d" fill-rule="evenodd"/>
    <polygon points="78.148 52.8 61.349 52.8 60.148 38.399 75.749 34.8 78.148 52.8" fill="#4d4d4d" fill-rule="evenodd"/>
    <polygon points="75.148 32.399 60.148 36 56.549 23.399 69.148 16.8 75.148 32.399" fill="#4d4d4d" fill-rule="evenodd"/>
    <polygon points="67.948 14.399 55.948 21 46.349 14.399 55.349 4.2 67.948 14.399" fill="#4d4d4d" fill-rule="evenodd"/>
    <polygon points="26.549 2.399 35.549 13.2 43.948 13.2 51.749 2.399 43.948 0 35.338 0 26.549 2.399" fill="#4d4d4d" fill-rule="evenodd"/>
    <polygon points=".749 52.8 17.549 52.8 18.749 38.399 3.148 34.8 .749 52.8" fill="#9c0000" fill-rule="evenodd"/>
    <polygon points="3.749 32.399 18.749 36 22.349 23.399 9.749 16.8 3.749 32.399" fill="#b50808" fill-rule="evenodd"/>
    <polygon points="10.948 14.399 22.948 21 32.549 14.399 23.549 4.2 10.948 14.399" fill="#c61818" fill-rule="evenodd"/>
    <polygon points="78.148 52.8 61.349 52.8 60.148 38.399 75.749 34.8 78.148 52.8" fill="#9c0000" fill-rule="evenodd"/>
    <polygon points="75.148 32.399 60.148 36 56.549 23.399 69.148 16.8 75.148 32.399" fill="#b50808" fill-rule="evenodd"/>
    <polygon points="67.948 14.399 55.948 21 46.349 14.399 55.349 4.2 67.948 14.399" fill="#c61818" fill-rule="evenodd"/>
    <polygon points="26.549 2.399 35.549 13.2 43.948 13.2 51.749 2.399 43.948 0 35.338 0 26.549 2.399" fill="#ce3129" fill-rule="evenodd"/>
  </g>
  <g>
    <path d="M9.853,70.978v.153h-3.042l-3.12-4.524h-1.046v4.524H0v-12.421h4.16c1.099,0,2.016.169,2.751.508.734.338,1.281.798,1.639,1.38.357.582.537,1.243.537,1.984,0,.869-.217,1.62-.651,2.252-.435.632-1.074,1.102-1.917,1.409l3.335,4.735ZM2.646,64.556h1.194c.783,0,1.387-.147,1.811-.441.424-.294.637-.779.637-1.457,0-.587-.189-1.028-.568-1.323-.379-.293-.907-.44-1.586-.44h-1.488v3.661Z" fill="#9c0000"/>
    <path d="M14.166,68.907h5.75v2.224h-8.396v-12.421h8.3v2.205h-5.655v2.798h4.888l-.311,2.186h-4.577v3.009Z" fill="#9c0000"/>
    <path d="M31.264,60.119c1.188.939,1.783,2.54,1.783,4.802,0,1.38-.313,2.537-.939,3.469-.626.933-1.46,1.623-2.501,2.07s-2.188.671-3.44.671h-4.045v-12.421h4.141c2.147,0,3.814.47,5.003,1.409ZM28.267,68.476c.654-.211,1.147-.597,1.481-1.16s.5-1.361.5-2.396c0-.958-.15-1.719-.45-2.281-.3-.562-.744-.968-1.331-1.217s-1.327-.374-2.221-.374h-1.48v7.744h.88c1.094,0,1.967-.105,2.621-.316Z" fill="#9c0000"/>
    <path d="M48.573,58.709v12.421h-2.646v-7.725c-.167.473-.45,1.093-.847,1.859l-2.157,4.332h-2.099l-2.196-4.332c-.398-.779-.681-1.399-.847-1.859v7.725h-2.646v-12.421h2.799l2.837,5.444c.217.422.422.853.613,1.294.192.441.345.828.46,1.16.181-.587.542-1.405,1.084-2.454l2.884-5.444h2.76Z" fill="#ce3129"/>
    <path d="M51.371,71.131v-12.421h2.646v12.421h-2.646Z" fill="#ce3129"/>
    <path d="M67.779,58.709v12.421h-2.952l-3.905-5.789c-.333-.511-.616-.955-.846-1.332-.231-.377-.456-.802-.673-1.275v8.396h-2.646v-12.421h2.914l4.251,6.364c.051.077.167.252.346.527.179.275.343.534.49.776.147.243.272.479.375.709v-8.377h2.645Z" fill="#ce3129"/>
    <path d="M73.146,68.907h5.75v2.224h-8.396v-12.421h8.3v2.205h-5.655v2.798h4.888l-.311,2.186h-4.577v3.009Z" fill="#ce3129"/>
  </g>
</svg>
